<?xml version="1.0" encoding="UTF-8" standalone="no"?>
<!-- Generator: Adobe Illustrator 16.0.0, SVG Export Plug-In . SVG Version: 6.00 Build 0)  -->

<svg
   xmlns:dc="http://purl.org/dc/elements/1.1/"
   xmlns:cc="http://creativecommons.org/ns#"
   xmlns:rdf="http://www.w3.org/1999/02/22-rdf-syntax-ns#"
   xmlns:svg="http://www.w3.org/2000/svg"
   xmlns="http://www.w3.org/2000/svg"
   xmlns:sodipodi="http://sodipodi.sourceforge.net/DTD/sodipodi-0.dtd"
   xmlns:inkscape="http://www.inkscape.org/namespaces/inkscape"
   version="1.1"
   id="Capa_1"
   x="0px"
   y="0px"
   width="460.298px"
   height="460.297px"
   viewBox="0 0 460.298 460.297"
   style="enable-background:new 0 0 460.298 460.297;"
   xml:space="preserve"
   sodipodi:docname="casa.svg"
   inkscape:version="0.92.4 (5da689c313, 2019-01-14)"><metadata
   id="metadata1033"><rdf:RDF><cc:Work
       rdf:about=""><dc:format>image/svg+xml</dc:format><dc:type
         rdf:resource="http://purl.org/dc/dcmitype/StillImage" /></cc:Work></rdf:RDF></metadata><defs
   id="defs1031" /><sodipodi:namedview
   pagecolor="#ffffff"
   bordercolor="#666666"
   borderopacity="1"
   objecttolerance="10"
   gridtolerance="10"
   guidetolerance="10"
   inkscape:pageopacity="0"
   inkscape:pageshadow="2"
   inkscape:window-width="1920"
   inkscape:window-height="1017"
   id="namedview1029"
   showgrid="false"
   showguides="true"
   inkscape:guide-bbox="true"
   inkscape:snap-bbox="true"
   inkscape:zoom="2.9003396"
   inkscape:cx="328.19476"
   inkscape:cy="303.57979"
   inkscape:window-x="-8"
   inkscape:window-y="-8"
   inkscape:window-maximized="1"
   inkscape:current-layer="Capa_1"><sodipodi:guide
     position="306.51583,283.0703"
     orientation="0,1"
     id="guide1075"
     inkscape:locked="false" /><sodipodi:guide
     position="149.63765,563.3823"
     orientation="0,1"
     id="guide1087"
     inkscape:locked="false" /><sodipodi:guide
     position="323.75519,456.15348"
     orientation="0,1"
     id="guide1123"
     inkscape:locked="false" /><sodipodi:guide
     position="25.514254,420.6404"
     orientation="1,0"
     id="guide1143"
     inkscape:locked="false" /><sodipodi:guide
     position="595.7923,412.36551"
     orientation="1,0"
     id="guide1145"
     inkscape:locked="false" /><sodipodi:guide
     position="88.012297,282.56579"
     orientation="1,0"
     id="guide1147"
     inkscape:locked="false" /><sodipodi:guide
     position="250.31552,328.927"
     orientation="1,0"
     id="guide1149"
     inkscape:locked="false" /><sodipodi:guide
     position="689.57442,437.19018"
     orientation="1,0"
     id="guide1151"
     inkscape:locked="false" /><sodipodi:guide
     position="125.80151,307.67734"
     orientation="1,0"
     id="guide1153"
     inkscape:locked="false" /><sodipodi:guide
     position="211.00977,322.03126"
     orientation="1,0"
     id="guide1155"
     inkscape:locked="false" /><sodipodi:guide
     position="273.76104,316.16988"
     orientation="1,0"
     id="guide1157"
     inkscape:locked="false" /><sodipodi:guide
     position="268.66911,407.1483"
     orientation="0,1"
     id="guide1218"
     inkscape:locked="false" /><sodipodi:guide
     position="324.74343,331.56987"
     orientation="0,1"
     id="guide1220"
     inkscape:locked="false" /><sodipodi:guide
     position="237.95014,312.55337"
     orientation="0,1"
     id="guide1222"
     inkscape:locked="false" /><sodipodi:guide
     position="341.80953,294.75587"
     orientation="1,0"
     id="guide1224"
     inkscape:locked="false" /><sodipodi:guide
     position="423.72679,375.45412"
     orientation="1,0"
     id="guide1226"
     inkscape:locked="false" /><sodipodi:guide
     position="380.30029,259.62477"
     orientation="1,0"
     id="guide1228"
     inkscape:locked="false" /></sodipodi:namedview>

<g
   id="g998">
</g>
<g
   id="g1000">
</g>
<g
   id="g1002">
</g>
<g
   id="g1004">
</g>
<g
   id="g1006">
</g>
<g
   id="g1008">
</g>
<g
   id="g1010">
</g>
<g
   id="g1012">
</g>
<g
   id="g1014">
</g>
<g
   id="g1016">
</g>
<g
   id="g1018">
</g>
<g
   id="g1020">
</g>
<g
   id="g1022">
</g>
<g
   id="g1024">
</g>
<g
   id="g1026">
</g>
<g
   id="g116"
   style="fill:#00334e;fill-opacity:1"
   transform="matrix(0.0741684,0,0,0.0741684,87.75278,55.094947)"
   inkscape:export-xdpi="95.820625"
   inkscape:export-ydpi="95.820625"><path
     d="m 500,295.8 c -112.6,0 -204.2,91.6 -204.2,204.2 0,112.6 91.6,204.2 204.2,204.2 112.6,0 204.1,-91.6 204.1,-204.2 C 704.2,387.4 612.6,295.8 500,295.8 Z m 0,367.5 C 409.9,663.3 336.6,590 336.6,500 c 0,-90.1 73.3,-163.3 163.4,-163.3 90.1,0 163.3,73.3 163.3,163.3 0,90 -73.2,163.3 -163.3,163.3 z"
     id="path112"
     style="fill:#00334e;fill-opacity:1"
     inkscape:connector-curvature="0" /><path
     d="m 940.9,396.4 -93.5,-19 c -4.7,-13.7 -10.2,-27 -16.3,-39.9 L 884,257 c 16.1,-24.5 12.9,-57.2 -7.7,-78 l -58.7,-59.5 c -11.8,-12 -27.4,-18.1 -43.2,-18.1 -11.7,0 -23.5,3.4 -33.8,10.4 l -79.4,53.7 c -12.7,-6.2 -25.8,-11.8 -39.4,-16.6 L 603.1,59.8 C 597.5,30.8 572.4,10 543.3,10 h -83 c -29.1,0 -54.1,20.8 -59.8,49.7 l -18.7,89.1 c -13.5,4.8 -26.6,10.4 -39.3,16.6 L 263,111.8 c -10.3,-7 -22.1,-10.4 -33.8,-10.4 -15.8,0 -31.4,6.2 -43.2,18.1 L 127.3,179 c -20.6,20.8 -23.8,53.5 -7.6,78 l 52.9,80.5 c -6.2,12.9 -11.7,26.2 -16.3,39.9 L 59,396.4 C 30.5,402.1 10,427.5 10,457 v 84.1 c 0,29.5 20.5,54.9 49.1,60.6 l 97.3,19 c 4.7,13.7 10.2,27 16.3,39.9 l -52.9,80.5 c -16.1,24.5 -12.9,57.2 7.6,78 l 58.7,59.5 c 11.8,12 27.4,18.1 43.2,18.1 11.7,0 23.5,-3.4 33.8,-10.4 l 79.4,-53.7 c 12.7,6.2 25.8,11.8 39.4,16.6 l 18.7,91 c 5.7,28.9 30.7,49.7 59.8,49.7 h 83 c 29.1,0 54.1,-20.8 59.9,-49.7 l 18.7,-91 c 13.5,-4.8 26.6,-10.4 39.3,-16.6 l 79.4,53.7 c 10.3,7 22.1,10.4 33.8,10.4 15.8,0 31.4,-6.1 43.2,-18.1 l 58.7,-59.5 c 20.6,-20.8 23.8,-53.5 7.7,-78 l -52.9,-80.5 c 6.2,-12.9 11.7,-26.2 16.3,-39.9 l 93.5,-19 c 28.5,-5.8 49,-31.2 49,-60.6 V 457 c 0,-29.5 -20.5,-54.9 -49.1,-60.6 z m 8.3,144.7 c 0,10 -6.9,18.7 -16.3,20.6 l -93.5,19 -22.9,4.7 -7.6,22.1 c -4.1,11.9 -9,23.8 -14.5,35.5 l -10,20.8 12.6,19.2 52.9,80.5 c 5.6,8.4 4.5,19.7 -2.6,26.9 l -58.6,59.5 c -3.8,3.9 -8.8,6 -14.2,6 -2.7,0 -6.8,-0.6 -11,-3.4 L 684.1,798.8 664.5,785.6 643.3,796 c -11.6,5.7 -23.4,10.7 -34.9,14.8 l -21.8,7.7 -4.7,22.6 -18.8,91.4 c -1.9,9.7 -10.2,16.8 -19.8,16.8 h -83 c -9.5,0 -17.8,-7.1 -19.8,-17.1 l -18.7,-91 -4.7,-22.6 -21.8,-7.7 c -11.7,-4.1 -23.4,-9.1 -34.9,-14.7 l -21.2,-10.4 -19.6,13.3 -79.5,53.7 c -4.1,2.8 -8.2,3.3 -10.9,3.3 -5.3,0 -10.3,-2.1 -14.1,-6 l -58.7,-59.5 c -7.1,-7.2 -8.1,-18.4 -2.6,-26.9 l 52.9,-80.5 12.6,-19.2 -9.9,-20.8 c -5.7,-12 -10.6,-24 -14.6,-35.5 L 187.2,585.4 164,580.9 67.1,562 C 57.6,560.1 50.8,551.4 50.8,541.4 V 457 c 0,-10 6.9,-18.7 16,-20.6 l 97.3,-19 23.2,-4.5 7.6,-22.3 c 4.1,-11.9 8.9,-23.8 14.5,-35.5 l 9.9,-20.8 -12.7,-19.3 -52.9,-80.5 c -5.6,-8.4 -4.5,-19.7 2.6,-26.9 L 215,148.1 c 3.8,-3.8 8.8,-6 14.1,-6 3.9,0 7.7,1.2 11,3.4 l 79.4,53.7 19.6,13.2 21.2,-10.4 c 11.7,-5.7 23.5,-10.7 35,-14.7 l 21.7,-7.6 4.7,-22.5 18.8,-89.6 c 1.9,-9.7 10.2,-16.8 19.7,-16.8 h 83 c 9.6,0 17.9,7.1 19.9,17.3 l 18.7,89.1 4.7,22.5 21.7,7.6 c 11.7,4.1 23.4,9.1 34.9,14.7 l 21.2,10.4 19.6,-13.3 79.5,-53.7 c 4.1,-2.8 8.2,-3.4 10.9,-3.4 5.3,0 10.3,2.1 14.1,6 l 58.7,59.5 c 7.1,7.2 8.1,18.4 2.6,26.9 l -52.8,80.6 -12.6,19.2 9.9,20.8 c 5.7,12 10.6,23.9 14.6,35.5 l 7.6,22.1 22.9,4.7 93.6,19 c 9.5,1.9 16.3,10.6 16.3,20.6 z"
     id="path114"
     style="fill:#00334e;fill-opacity:1"
     inkscape:connector-curvature="0" /></g><path
   style="opacity:1;fill:#00334e;fill-opacity:1;fill-rule:evenodd;stroke:#00334e;stroke-width:0.50394213;stroke-linecap:round;stroke-linejoin:round;stroke-miterlimit:4;stroke-dasharray:none;stroke-dashoffset:0;stroke-opacity:0.85490196;paint-order:normal"
   d="m 120.99259,124.97184 c -0.29358,-0.32415 -0.69841,-1.79952 -1.32079,-4.81343 l -0.89745,-4.346 -2.10258,-0.86457 c -1.15641,-0.47551 -2.5097,-1.02443 -3.0073,-1.21983 l -0.90473,-0.35528 -3.81778,2.58879 c -2.09977,1.42384 -3.99267,2.58561 -4.20643,2.58173 -0.52299,-0.009 -0.6989,-0.16425 -3.47292,-3.05481 -2.10211,-2.19044 -2.38732,-2.57781 -2.26291,-3.07352 0.0783,-0.31195 1.25298,-2.2287 2.6104,-4.25944 2.23981,-3.3508 2.44654,-3.74475 2.23543,-4.2599 -0.21042,-0.51344 -1.59078,-3.910243 -2.03831,-5.015883 -0.15505,-0.38304 -0.83973,-0.57653 -4.70983,-1.33093 -3.6353,-0.70864 -4.62703,-0.97983 -5.02842,-1.37505 -0.47701,-0.46968 -0.50001,-0.65519 -0.50001,-4.0334 0,-3.07568 0.0524,-3.60584 0.39905,-4.03388 0.33321,-0.41149 1.16389,-0.64474 5.03399,-1.41352 l 4.63494,-0.92071 1.08963,-2.6667 c 0.59929,-1.46668 1.13981,-2.81923 1.20116,-3.00567 0.0639,-0.1941 -0.93765,-1.93028 -2.34319,-4.06206 -1.3501,-2.04769 -2.51733,-3.97254 -2.59386,-4.27744 -0.11992,-0.47782 0.16353,-0.86642 2.05297,-2.81442 1.20565,-1.24303 2.29416,-2.37488 2.41891,-2.51522 0.40306,-0.45346 1.24318,-0.80756 1.59534,-0.67243 0.18864,0.0724 1.97539,1.2301 3.97058,2.5727 1.99518,1.34259 3.78704,2.44108 3.9819,2.44108 0.19486,0 0.77531,-0.21743 1.28989,-0.48319 0.51458,-0.26576 1.72868,-0.79534 2.698,-1.17686 l 1.7624,-0.69368 0.92539,-4.41209 c 0.69284,-3.30328 1.02851,-4.48748 1.33566,-4.71208 0.30433,-0.22253 1.33723,-0.29999 4.00006,-0.29999 3.22213,0 3.62823,0.0425 3.9652,0.41483 0.23013,0.25429 0.71646,2.03203 1.25668,4.5937 0.48469,2.29838 0.88126,4.23948 0.88126,4.31357 0,0.0741 0.87501,0.46285 1.94446,0.86391 1.06946,0.40107 2.3918,0.96174 2.93853,1.24593 l 0.99407,0.51672 3.96169,-2.66223 c 3.00254,-2.01769 4.08089,-2.63231 4.45404,-2.53866 0.27079,0.068 1.61574,1.26219 2.98877,2.65384 1.97484,2.00162 2.49642,2.65932 2.49642,3.14798 0,0.41438 -0.83959,1.89409 -2.55049,4.49504 l -2.55048,3.87732 0.63558,1.26137 c 0.34957,0.69374 0.90183,2.01267 1.22726,2.93094 l 0.59168,1.66959 4.59234,0.92559 c 3.37503,0.68024 4.66828,1.02944 4.87882,1.31736 0.45054,0.61615 0.40332,7.71386 -0.0544,8.17155 -0.43358,0.43358 -0.94178,0.56788 -5.59073,1.47739 l -3.82043,0.74743 -0.5945,1.677523 c -0.32697,0.92263 -0.87958,2.2433 -1.22802,2.93481 l -0.63353,1.2573 2.54454,3.85386 c 1.78529,2.70394 2.5457,4.04975 2.54843,4.51034 0.003,0.54408 -0.44491,1.10527 -2.61745,3.27781 -1.44173,1.44174 -2.78593,2.62135 -2.9871,2.62135 -0.20117,0 -2.14755,-1.18292 -4.32529,-2.6287 l -3.95954,-2.6287 -1.53491,0.73304 c -0.8442,0.40318 -2.15417,0.95514 -2.91104,1.22658 l -1.37613,0.49353 -0.91857,4.45771 c -0.73735,3.57824 -1.01144,4.53444 -1.38928,4.8466 -0.40421,0.33395 -0.96467,0.38889 -3.96724,0.38889 -3.2715,0 -3.52377,-0.0301 -3.91986,-0.46743 z m 6.75277,-17.87233 c 1.01505,-0.20123 2.57295,-0.75688 3.82401,-1.36388 1.78243,-0.86482 2.40567,-1.32229 4.00292,-2.93823 1.3901,-1.40637 2.11245,-2.35593 2.72385,-3.580613 2.16637,-4.33941 2.27986,-9.31278 0.30663,-13.43821 -3.78081,-7.90456 -12.918,-11.00709 -20.81132,-7.06648 -3.44491,1.7198 -6.61393,5.68225 -7.6903,9.61569 -0.62945,2.30025 -0.53603,6.07137 0.20644,8.33342 0.81059,2.46957 1.99272,4.391723 3.82462,6.218873 3.70572,3.69611 8.60038,5.21323 13.61315,4.21943 z"
   id="path931"
   inkscape:connector-curvature="0"
   inkscape:export-xdpi="95.820625"
   inkscape:export-ydpi="95.820625" /><path
   style="opacity:1;fill:#00334e;fill-opacity:1;fill-rule:evenodd;stroke:#00334e;stroke-width:0.50394213;stroke-linecap:round;stroke-linejoin:round;stroke-miterlimit:4;stroke-dasharray:none;stroke-dashoffset:0;stroke-opacity:0.85490196;paint-order:normal"
   d="m 119.64118,127.7677 c -1.4281,-0.85601 -1.82537,-1.72542 -2.71623,-5.94447 l -0.80018,-3.78962 -1.50395,-0.63639 -1.50395,-0.6364 -3.32318,2.26902 c -3.14811,2.14948 -3.39311,2.27408 -4.65041,2.36502 -1.99361,0.14421 -2.86214,-0.38028 -5.93432,-3.58362 -1.42704,-1.48797 -2.72983,-3.02719 -2.89507,-3.42049 -0.38826,-0.92411 -0.38396,-2.54377 0.009,-3.48484 0.17033,-0.40765 1.2153,-2.09428 2.32216,-3.74808 l 2.01247,-3.0069 -0.63976,-1.52262 -0.63976,-1.52262 -2.96019,-0.6121 c -1.6281,-0.33666 -3.495,-0.720793 -4.14867,-0.853633 -1.35809,-0.27598 -2.79726,-1.40577 -3.28997,-2.58272 -0.42218,-1.00846 -0.42218,-8.89481 0,-9.90327 0.49271,-1.17695 1.93188,-2.30674 3.28997,-2.58273 0.65367,-0.13283 2.52057,-0.51696 4.14867,-0.85362 l 2.96019,-0.61211 0.63395,-1.50884 0.63395,-1.50883 -2.01715,-3.04677 c -2.3368,-3.52958 -2.61554,-4.11479 -2.61554,-5.49123 0,-1.59348 0.43324,-2.29174 3.20696,-5.16869 3.06038,-3.17427 3.94259,-3.70804 5.8952,-3.5668 1.22011,0.0883 1.50453,0.23279 4.65224,2.36424 l 3.35267,2.27025 1.50199,-0.63614 1.502,-0.63614 0.82593,-3.83813 c 0.89926,-4.17886 1.2216,-4.85389 2.78071,-5.82323 0.78532,-0.48826 1.09333,-0.52568 4.89082,-0.59424 3.92494,-0.0709 4.09083,-0.0557 5.26164,0.4803 1.81069,0.82896 2.18455,1.54947 3.12546,6.02337 0.43536,2.0701 0.81454,3.77496 0.84261,3.78859 0.0281,0.0136 0.69612,0.29612 1.48456,0.62774 l 1.43352,0.60296 3.40854,-2.26286 c 3.05182,-2.02603 3.53293,-2.27316 4.59719,-2.36142 1.95551,-0.16216 2.43906,0.1295 5.7292,3.45576 4.53503,4.5848 4.5724,5.05551 0.851,10.71817 l -2.04401,3.11026 0.62894,1.53546 0.62894,1.53545 3.55559,0.70624 c 4.10519,0.81541 5.16372,1.21656 5.94695,2.25371 0.94314,1.24892 1.09264,2.19453 1.01425,6.41536 -0.11205,6.03237 -0.45298,6.42825 -6.64157,7.712063 l -3.88771,0.8065 -0.62269,1.51938 -0.6227,1.51938 2.00667,3.05477 c 2.77346,4.22203 2.99559,4.84167 2.44931,6.83257 -0.19097,0.69597 -0.89916,1.55135 -3.26297,3.9411 -3.29014,3.32626 -3.77369,3.61792 -5.7292,3.45576 -1.06445,-0.0883 -1.54553,-0.3355 -4.60414,-2.36604 l -3.41549,-2.26747 -1.20434,0.56062 c -0.6624,0.30834 -1.32935,0.5616 -1.48213,0.56279 -0.15278,0.001 -0.27832,0.0772 -0.27898,0.16884 -0.005,0.65836 -1.58197,7.46316 -1.8479,7.9725 -0.43884,0.84053 -1.44137,1.77447 -2.22096,2.06902 -0.36354,0.13735 -2.41146,0.23548 -4.88894,0.23426 -4.15193,-0.002 -4.28761,-0.0166 -5.19143,-0.55839 z m 0.81591,-3.82007 c -0.24214,-0.37762 -0.24841,-0.37714 -0.12684,0.01 0.0703,0.22389 0.13579,0.52389 0.14544,0.66668 0.0127,0.18737 0.048,0.18464 0.12684,-0.01 0.0601,-0.14818 -0.005,-0.44818 -0.14544,-0.66668 z m 25.89021,-5.84176 c 0.22122,-0.24445 0.35222,-0.44445 0.29111,-0.44445 -0.0611,0 -0.29211,0.2 -0.51334,0.44445 -0.22122,0.24444 -0.35222,0.44445 -0.29111,0.44445 0.0611,0 0.29212,-0.20001 0.51334,-0.44445 z m -46.55603,-4.07671 c 0,-0.0422 -0.22501,-0.26718 -0.50001,-0.50001 l -0.5,-0.42333 0.42333,0.5 c 0.39783,0.46988 0.57668,0.60117 0.57668,0.42334 z m 51.18831,-2.04405 c -0.0724,-0.18861 -0.17925,-0.29526 -0.2375,-0.23701 -0.0583,0.0583 -0.04,0.21257 0.0406,0.34292 0.21913,0.35455 0.3472,0.28567 0.19693,-0.10591 z m -23.58786,-7.90093 c 5.37749,-1.11318 9.50385,-6.155223 9.55282,-11.672703 0.0321,-3.62195 -1.02044,-6.19127 -3.58847,-8.75931 -2.55239,-2.55239 -5.04619,-3.58703 -8.62618,-3.57888 -3.31144,0.008 -6.08303,1.18181 -8.52638,3.61249 -5.72127,5.69158 -4.24735,15.41529 2.90646,19.174513 0.83286,0.43765 2.05192,0.94034 2.70902,1.11707 1.44814,0.3895 3.97335,0.4379 5.57273,0.10682 z M 93.12453,96.899707 c 0,-0.0522 -0.30168,-0.24534 -0.67041,-0.42929 -0.36873,-0.18394 -0.6085,-0.23426 -0.53282,-0.11181 0.0757,0.12245 0.35236,0.30928 0.61485,0.41519 0.59935,0.24183 0.58838,0.23948 0.58838,0.12591 z m 65.11178,-1.79408 c 0,-0.42778 -0.0391,-0.77778 -0.0868,-0.77778 -0.0478,0 -0.12766,0.35 -0.1776,0.77778 -0.0499,0.42779 -0.0109,0.77779 0.0868,0.77779 0.0977,0 0.1776,-0.35 0.1776,-0.77779 z m -0.0751,-6.38895 c -0.0616,-0.15278 -0.11209,-0.0278 -0.11209,0.27778 0,0.30556 0.0504,0.43056 0.11209,0.27778 0.0616,-0.15278 0.0616,-0.40278 0,-0.55556 z m -65.45075,-1.23063 c -0.16032,-0.0534 -0.39715,0.008 -0.52628,0.13763 -0.16491,0.16491 -0.0781,0.19383 0.29149,0.0972 0.30049,-0.0786 0.40123,-0.17931 0.23479,-0.23479 z m 58.19244,-15.15842 c 0.13082,-0.24445 0.18786,-0.44445 0.12675,-0.44445 -0.0611,0 -0.21815,0.2 -0.34898,0.44445 -0.13082,0.24444 -0.18786,0.44444 -0.12675,0.44444 0.0611,0 0.21816,-0.2 0.34898,-0.44444 z m -6.10529,-6.62382 c -0.0684,-0.0684 -0.24774,-1.5e-4 -0.39848,0.15173 -0.21784,0.21947 -0.19231,0.245 0.1244,0.1244 0.21916,-0.0835 0.3425,-0.20771 0.27408,-0.27613 z m -15.29868,-5.86242 c -0.0709,-0.17728 -0.1236,-0.12462 -0.13426,0.13426 -0.01,0.23426 0.0429,0.36551 0.11671,0.29167 0.0738,-0.0738 0.0817,-0.26552 0.0175,-0.42593 z m -7.20321,-0.993 c -0.15045,-0.0609 -0.45045,-0.0646 -0.66667,-0.008 -0.21622,0.0563 -0.0931,0.10615 0.27355,0.11068 0.36667,0.004 0.54358,-0.0416 0.39312,-0.10244 z m 6.10232,0.0115 c -0.0738,-0.0738 -0.26552,-0.0817 -0.42593,-0.0175 -0.17728,0.0709 -0.12462,0.1236 0.13426,0.13426 0.23426,0.01 0.36551,-0.0429 0.29167,-0.11671 z"
   id="path933"
   inkscape:connector-curvature="0"
   inkscape:export-xdpi="95.820625"
   inkscape:export-ydpi="95.820625" /><path
   style="opacity:1;fill:#00334e;fill-opacity:1;fill-rule:evenodd;stroke:#00334e;stroke-width:0.51931125;stroke-linecap:round;stroke-linejoin:round;stroke-miterlimit:4;stroke-dasharray:none;stroke-dashoffset:0;stroke-opacity:0.85490196;paint-order:normal"
   d="m 121.34306,128.22983 c -1.23032,-0.45582 -2.35797,-1.62171 -2.77084,-2.86474 -0.1914,-0.57632 -0.6564,-2.48436 -1.03334,-4.24011 -0.37695,-1.75575 -0.76364,-3.25968 -0.85939,-3.34205 -0.0957,-0.0824 -0.7722,-0.38623 -1.50329,-0.67517 l -1.32924,-0.52539 -3.26475,2.22179 c -3.41544,2.32433 -4.53549,2.7882 -6.0645,2.51165 -1.42435,-0.25764 -2.12211,-0.76055 -4.700151,-3.38761 -3.322997,-3.38614 -3.665543,-3.92034 -3.661369,-5.7097 0.0041,-1.67002 0.137704,-1.95521 2.775377,-5.9148 l 1.946493,-2.922 -0.62878,-1.47941 C 99.755698,100.7409 99.490839,100.3903 99.017397,100.27141 98.68569,100.18812 96.97158,99.827177 95.208264,99.469312 91.470318,98.710641 91.079182,98.579078 90.091842,97.748281 88.643364,96.52948 88.56721,96.19227 88.56721,90.997479 c 0,-5.194783 0.07615,-5.531993 1.524632,-6.750804 0.993092,-0.835631 1.378146,-0.963485 5.23092,-1.736821 1.82629,-0.36658 3.536022,-0.717216 3.799406,-0.779212 0.329842,-0.07758 0.677223,-0.579398 1.116232,-1.612358 l 0.63738,-1.499653 -2.110338,-3.181745 c -2.75444,-4.152876 -3.060827,-5.008419 -2.483604,-6.935025 0.311602,-1.04002 3.514534,-4.733316 5.578272,-6.432309 2.68469,-2.21018 4.02134,-2.035211 8.73134,1.142968 l 3.25859,2.198826 1.3277,-0.524751 c 0.73025,-0.288612 1.40338,-0.589507 1.49586,-0.668648 0.0924,-0.07913 0.52745,-1.771943 0.96655,-3.761752 0.92212,-4.178608 1.424,-5.249294 2.88326,-6.150899 1.03493,-0.639423 1.06604,-0.643452 5.38155,-0.696391 4.08403,-0.05007 4.39603,-0.0236 5.27828,0.448526 0.51572,0.275977 1.25328,0.861177 1.63895,1.300459 0.69525,0.791823 1.03514,1.942518 2.17343,7.357858 0.28457,1.353765 0.30738,1.383092 1.54792,1.990436 0.69249,0.339035 1.38848,0.622422 1.54664,0.629758 0.15814,0.0072 1.75544,-0.96064 3.54952,-2.15104 3.73746,-2.479873 4.81359,-2.875924 6.53009,-2.403347 0.92342,0.254233 1.52591,0.739031 4.09069,3.291687 1.65426,1.646449 3.19364,3.354221 3.42083,3.795048 0.24853,0.48217 0.40865,1.273406 0.40195,1.985924 -0.0126,1.338544 -0.3647,2.052102 -3.03174,6.143642 -1.79105,2.747722 -1.79112,2.748011 -0.86446,4.668849 l 0.50069,1.037784 3.60371,0.731559 c 1.98206,0.40236 4.07564,0.960001 4.65242,1.239215 2.20134,1.065648 2.66782,2.782572 2.4036,8.846775 -0.14091,3.234125 -0.19231,3.533165 -0.75309,4.380544 -0.82231,1.242584 -2.02081,1.764676 -5.92633,2.581658 -1.81131,0.378869 -3.50903,0.77886 -3.77268,0.88886 -0.30201,0.12594 -0.67119,0.71284 -0.99771,1.58591 l -0.51829,1.38593 0.52601,0.86807 c 0.2893,0.47746 1.10974,1.74402 1.82316,2.8146 1.93345,2.90136 2.34072,3.80674 2.32842,5.17617 -0.006,0.65176 -0.18665,1.53138 -0.40177,1.95471 -0.21512,0.42333 -1.74368,2.11894 -3.3968,3.768 -4.50604,4.49503 -5.10349,4.54308 -10.65819,0.85726 l -3.30145,-2.19068 -1.27858,0.51612 c -0.70324,0.28386 -1.39078,0.63058 -1.5279,0.77055 -0.13714,0.13996 -0.59257,1.87593 -1.01211,3.85769 -0.85789,4.05254 -1.28803,5.00556 -2.7105,6.00532 l -0.99106,0.69656 -4.27407,0.0596 c -3.26866,0.0456 -4.48281,-0.0176 -5.16148,-0.26913 z m 8.34323,-25.39004 c 4.59745,-1.56732 7.82691,-5.421401 8.50622,-10.151399 0.54085,-3.765801 -0.74134,-7.446071 -3.58483,-10.289563 -7.77938,-7.779375 -20.96477,-2.386511 -20.96477,8.574661 0,4.225402 1.71347,7.703447 4.92367,9.994171 2.54951,1.81931 4.1913,2.34147 7.44244,2.367 1.68459,0.0132 2.51441,-0.0984 3.67727,-0.49487 z"
   id="path935"
   inkscape:connector-curvature="0"
   inkscape:export-xdpi="95.820625"
   inkscape:export-ydpi="95.820625" /><text
   xml:space="preserve"
   style="font-style:normal;font-variant:normal;font-weight:normal;font-stretch:normal;font-size:19.7782402px;line-height:1.25;font-family:Calibri;-inkscape-font-specification:'Calibri, Normal';font-variant-ligatures:normal;font-variant-caps:normal;font-variant-numeric:normal;font-feature-settings:normal;text-align:start;letter-spacing:0px;word-spacing:0px;writing-mode:lr-tb;text-anchor:start;fill:#00334e;fill-opacity:1;stroke:#00334e;stroke-width:0.0741684;stroke-opacity:1"
   x="87.167549"
   y="147.86076"
   id="text943"
   inkscape:export-xdpi="95.820625"
   inkscape:export-ydpi="95.820625"><tspan
     sodipodi:role="line"
     id="tspan941"
     x="87.167549"
     y="147.86076"
     style="font-style:normal;font-variant:normal;font-weight:normal;font-stretch:normal;font-size:19.7782402px;font-family:Calibri;-inkscape-font-specification:'Calibri, Normal';font-variant-ligatures:normal;font-variant-caps:normal;font-variant-numeric:normal;font-feature-settings:normal;text-align:start;writing-mode:lr-tb;text-anchor:start;fill:#00334e;fill-opacity:1;stroke:#00334e;stroke-width:0.0741684;stroke-opacity:1">SETTINGS</tspan></text>
<g
   id="g1113"
   transform="matrix(0.07846688,0,0,0.07670865,210.79309,52.468393)"
   style="fill:#00334e;fill-opacity:1;stroke:#00334e;stroke-opacity:1"
   inkscape:export-xdpi="95.820625"
   inkscape:export-ydpi="95.820625"><path
     id="path1111"
     d="M 132.5,163.1 V 40.6 c 0,-16.9 13.7,-30.6 30.6,-30.6 16.9,0 30.6,13.7 30.6,30.6 v 122.5 c 0,16.9 -13.7,30.6 -30.6,30.6 -16.9,0 -30.6,-13.6 -30.6,-30.6 z m 520.6,30.7 c 16.9,0 30.6,-13.7 30.6,-30.6 V 40.6 C 683.7,23.7 670,10 653.1,10 636.2,10 622.5,23.7 622.5,40.6 v 122.5 c 0,17 13.7,30.7 30.6,30.7 z M 990,745 C 990,880.3 880.3,990 745,990 609.7,990 500,880.3 500,745 500,609.7 609.7,500 745,500 c 135.3,0 245,109.7 245,245 z m -61.2,0 c 0,-101.3 -82.4,-183.8 -183.8,-183.8 -101.4,0 -183.7,82.5 -183.7,183.8 0,101.4 82.4,183.8 183.8,183.8 101.4,0 183.7,-82.4 183.7,-183.8 z M 255,377.5 H 132.5 V 500 H 255 Z M 132.5,683.8 H 255 V 561.3 H 132.5 Z M 316.3,500 H 438.8 V 377.5 H 316.3 Z m 0,183.8 H 438.8 V 561.3 H 316.3 Z m -245,55.1 V 316.3 H 745 v 122.5 h 61.3 v -239 c 0,-37.2 -29.7,-67.3 -66.3,-67.3 h -25.5 v 30.6 c 0,33.8 -27.4,61.3 -61.3,61.3 -33.9,0 -61.3,-27.5 -61.3,-61.3 V 132.5 H 224.4 v 30.6 c 0,33.8 -27.5,61.3 -61.3,61.3 -33.8,0 -61.3,-27.5 -61.3,-61.3 V 132.5 H 76.4 C 39.8,132.5 10,162.6 10,199.8 v 539.1 c 0,37.1 29.7,67.3 66.4,67.3 H 438.8 V 745 H 76.4 c -2.8,0 -5.1,-2.9 -5.1,-6.1 z M 622.5,500 V 377.5 H 500 V 500 Z M 836.9,745 H 745 v -91.9 c 0,-16.9 -13.7,-30.6 -30.6,-30.6 -16.9,0 -30.6,13.7 -30.6,30.6 v 122.5 c 0,16.9 13.7,30.6 30.6,30.6 h 122.5 c 16.9,0 30.6,-13.7 30.6,-30.6 0,-16.9 -13.7,-30.6 -30.6,-30.6 z"
     inkscape:connector-curvature="0"
     style="fill:#00334e;fill-opacity:1;stroke:#00334e;stroke-opacity:1" /></g><text
   xml:space="preserve"
   style="font-style:normal;font-variant:normal;font-weight:normal;font-stretch:normal;font-size:20.00496674px;line-height:1.25;font-family:Calibri;-inkscape-font-specification:'Calibri, Normal';font-variant-ligatures:normal;font-variant-caps:normal;font-variant-numeric:normal;font-feature-settings:normal;text-align:start;letter-spacing:0px;word-spacing:0px;writing-mode:lr-tb;text-anchor:start;fill:#00334e;fill-opacity:1;stroke:#00334e;stroke-width:0.07501862;stroke-opacity:1"
   x="217.11484"
   y="149.42012"
   id="text943-0"
   inkscape:export-xdpi="95.820625"
   inkscape:export-ydpi="95.820625"
   transform="scale(1.0113955,0.98873289)"><tspan
     sodipodi:role="line"
     id="tspan941-5"
     x="217.11484"
     y="149.42012"
     style="font-style:normal;font-variant:normal;font-weight:normal;font-stretch:normal;font-size:20.00496674px;font-family:Calibri;-inkscape-font-specification:'Calibri, Normal';font-variant-ligatures:normal;font-variant-caps:normal;font-variant-numeric:normal;font-feature-settings:normal;text-align:start;writing-mode:lr-tb;text-anchor:start;fill:#00334e;fill-opacity:1;stroke:#00334e;stroke-width:0.07501862;stroke-opacity:1">S. TASK</tspan></text>
<g
   id="g1187"
   transform="matrix(0.07814818,0,0,0.08450617,341.19023,48.79039)"
   style="fill:#00334e;fill-opacity:1;stroke:#00334e;stroke-opacity:1"
   inkscape:export-xdpi="95"
   inkscape:export-ydpi="95"><g
     id="g1185"
     transform="matrix(0.1,0,0,-0.1,0,511)"
     style="fill:#00334e;fill-opacity:1;stroke:#00334e;stroke-opacity:1"><path
       id="path1179"
       d="M 2313.5,4590 C 1704.3,4500 1196.6,4068.9 1020.3,3490.4 995.4,3404.2 876.6,2584.2 685,1160.8 522.2,-48.1 388.1,-1053.9 388.1,-1075 c 0,-34.5 15.3,-28.7 128.4,47.9 164.7,111.1 360.2,203.1 553.7,258.7 l 151.3,44.1 h 3783.7 3783.7 l 151.3,-44.1 c 191.6,-55.6 394.6,-149.5 546,-252.9 67.1,-44.1 122.6,-76.6 126.4,-72.8 11.5,13.4 -582.4,4419.7 -613,4534.6 -70.9,272 -216.5,515.4 -433,722.3 -212.7,201.2 -411.9,314.2 -705,396.6 l -145.6,42.1 -2643.8,1.9 c -1454.1,1.9 -2695.5,-3.8 -2758.7,-13.4 z m 4009.7,-401.3309 c 28.8,-15.3 295,-272 593.9,-570.9 l 540.3,-544.1 v -84.3 -84.3 l -540.3,-544.1 c -298.9,-298.9 -567.1,-555.6 -597.7,-572.8 -126.4,-65.1 -279.7,38.3 -279.7,191.6 0,76.6 9.6,88.1 367.8,448.3 l 367.8,369.7 H 4844.2 c -1766.4,0 -1934.9,1.9 -1984.8,32.6 -111.1,65.1 -130.3,222.2 -40.2,314.2 l 55.6,55.6 h 1940.7 1940.7 l -358.3,360.2 c -346.8,348.7 -358.2,362.1 -358.2,438.7 0,159 149.4,260.5 283.5,189.6 z M 3690.9,2065.9309 c 24.9,-17.3 55.6,-55.6 69,-88.1 49.8,-116.9 21.1,-157.1 -350.6,-528.8 l -348.7,-350.6 h 2019.2 c 1846.8,0 2021.2,-1.9 2071,-32.6 111.1,-65.1 130.3,-222.20001 40.2,-314.20001 l -55.5,-55.5 H 5093.3 c -1122.6,0 -2042.2,-5.7 -2042.2,-13.4 0,-7.7 164.8,-178.2 364,-379.3 344.8,-346.799999 364,-369.699999 364,-438.7 0,-57.5 -13.4,-86.2 -65.1,-137.9 -72.8,-72.8 -149.4,-84.3 -237.6,-38.3 -78.5,42.1 -1092,1067.1 -1113.1,1126.5 -42.2,113 -21.1,139.8 561.3,722.20001 557.5,555.6 559.4,557.5 639.9,557.5 46,-0.1 101.5,-13.5 126.4,-28.8 z"
       inkscape:connector-curvature="0"
       style="fill:#00334e;fill-opacity:1;stroke:#00334e;stroke-opacity:1"
       sodipodi:nodetypes="cccscccccccccccccccccccccsccsccccccscccccscccsscssccccc" /><path
       id="path1181"
       d="M 1250.2,-1145.9 C 687,-1258.9 236.8,-1714.9 127.5,-2282 c -38.3,-199.2 -36.4,-764.4 3.8,-957.9 111.1,-538.3 542.2,-984.7 1074.8,-1109.2 141.8,-32.6 327.6,-34.5 3799,-34.5 4126.6,0 3783.7,-13.4 4118.9,155.2 289.3,145.6 555.6,431.1 676.3,728 90.1,222.2 99.6,298.9 99.6,754.8 0,358.2 -5.7,452.1 -34.5,555.6 -139.9,496.2 -517.3,877.4 -1019.2,1028.8 -109.2,32.6 -312.3,34.5 -3793.3,38.3 -2957.8,1.9 -3703,-1.9 -3802.7,-23 z m 7178.5,-1053.6 c 385.1,-174.4 471.3,-699.3 164.7,-988.5 -115,-109.2 -224.2,-157.1 -388.9,-166.7 -185.8,-9.6 -325.7,40.2 -450.2,160.9 -245.2,237.6 -256.7,603.5 -30.6,858.3 172.4,189.6 463.6,247.1 705,136 z"
       inkscape:connector-curvature="0"
       style="fill:#00334e;fill-opacity:1;stroke:#00334e;stroke-opacity:1" /><path
       id="path1183"
       d="m 8030.2,-2609.5 c -44.1,-46 -55.6,-72.8 -55.6,-139.8 1.9,-191.6 203.1,-275.9 337.2,-141.8 134.1,134.1 49.8,335.2 -141.8,337.2 -67,0 -93.8,-11.5 -139.8,-55.6 z"
       inkscape:connector-curvature="0"
       style="fill:#00334e;fill-opacity:1;stroke:#00334e;stroke-opacity:1" /></g></g><text
   xml:space="preserve"
   style="font-style:normal;font-variant:normal;font-weight:normal;font-stretch:normal;font-size:19.7782402px;line-height:1.25;font-family:Calibri;-inkscape-font-specification:'Calibri, Normal';font-variant-ligatures:normal;font-variant-caps:normal;font-variant-numeric:normal;font-feature-settings:normal;text-align:start;letter-spacing:0px;word-spacing:0px;writing-mode:lr-tb;text-anchor:start;fill:#00334e;fill-opacity:1;stroke:#00334e;stroke-width:0.0741684;stroke-opacity:1"
   x="348.4429"
   y="147.55391"
   id="text943-7"
   inkscape:export-xdpi="95.820625"
   inkscape:export-ydpi="95.820625"><tspan
     sodipodi:role="line"
     id="tspan941-2"
     x="348.4429"
     y="147.55391"
     style="font-style:normal;font-variant:normal;font-weight:normal;font-stretch:normal;font-size:19.7782402px;font-family:Calibri;-inkscape-font-specification:'Calibri, Normal';font-variant-ligatures:normal;font-variant-caps:normal;font-variant-numeric:normal;font-feature-settings:normal;text-align:start;writing-mode:lr-tb;text-anchor:start;fill:#00334e;fill-opacity:1;stroke:#00334e;stroke-width:0.0741684;stroke-opacity:1">TRANSF </tspan></text>
</svg>