<?xml version="1.0" encoding="utf-8"?>
<!-- Svg Vector Icons : http://www.onlinewebfonts.com/icon -->
<!DOCTYPE svg PUBLIC "-//W3C//DTD SVG 1.1//EN" "http://www.w3.org/Graphics/SVG/1.1/DTD/svg11.dtd">
<svg version="1.1" xmlns="http://www.w3.org/2000/svg" xmlns:xlink="http://www.w3.org/1999/xlink" x="0px" y="0px" viewBox="0 0 1000 1000" enable-background="new 0 0 1000 1000" xml:space="preserve">
<metadata> Svg Vector Icons : http://www.onlinewebfonts.com/icon </metadata>
<g><g transform="translate(0.000000,511.000000) scale(0.100000,-0.100000)"><path d="M2313.5,4590c-609.2-90-1116.9-521.1-1293.2-1099.6c-24.9-86.2-143.7-906.2-335.3-2329.6C522.2-48.1,388.1-1053.9,388.1-1075c0-34.5,15.3-28.7,128.4,47.9C681.2-916,876.7-824,1070.2-768.4l151.3,44.1h3783.7h3783.7l151.3-44.1c191.6-55.6,394.6-149.5,546-252.9c67.1-44.1,122.6-76.6,126.4-72.8c11.5,13.4-582.4,4419.7-613,4534.6c-70.9,272-216.5,515.4-433,722.3c-212.7,201.2-411.9,314.2-705,396.6l-145.6,42.1l-2643.8,1.9C3618.1,4605.3,2376.7,4599.6,2313.5,4590z M6323.2,3952c28.8-15.3,295-272,593.9-570.9l540.3-544.1v-84.3v-84.3l-540.3-544.1c-298.9-298.9-567.1-555.6-597.7-572.8c-126.4-65.1-279.7,38.3-279.7,191.6c0,76.6,9.6,88.1,367.8,448.3l367.8,369.7H4844.2c-1766.4,0-1934.9,1.9-1984.8,32.6c-111.1,65.1-130.3,222.2-40.2,314.2l55.6,55.6h1940.7h1940.7l-358.3,360.2c-346.8,348.7-358.2,362.1-358.2,438.7C6039.7,3921.4,6189.1,4022.9,6323.2,3952z M3690.9,2302.6c24.9-17.3,55.6-55.6,69-88.1c49.8-116.9,21.1-157.1-350.6-528.8l-348.7-350.6h2019.2c1846.8,0,2021.2-1.9,2071-32.6c111.1-65.1,130.3-222.2,40.2-314.2l-55.5-55.5H5093.3c-1122.6,0-2042.2-5.7-2042.2-13.4s164.8-178.2,364-379.3c344.8-346.8,364-369.7,364-438.7c0-57.5-13.4-86.2-65.1-137.9c-72.8-72.8-149.4-84.3-237.6-38.3c-78.5,42.1-1092,1067.1-1113.1,1126.5c-42.2,113-21.1,139.8,561.3,722.2c557.5,555.6,559.4,557.5,639.9,557.5C3610.5,2331.3,3666,2317.9,3690.9,2302.6z"/><path d="M1250.2-1145.9c-563.2-113-1013.4-569-1122.7-1136.1c-38.3-199.2-36.4-764.4,3.8-957.9c111.1-538.3,542.2-984.7,1074.8-1109.2c141.8-32.6,327.6-34.5,3799-34.5c4126.6,0,3783.7-13.4,4118.9,155.2c289.3,145.6,555.6,431.1,676.3,728c90.1,222.2,99.6,298.9,99.6,754.8c0,358.2-5.7,452.1-34.5,555.6c-139.9,496.2-517.3,877.4-1019.2,1028.8c-109.2,32.6-312.3,34.5-3793.3,38.3C2095.1-1121,1349.9-1124.8,1250.2-1145.9z M8428.7-2199.5c385.1-174.4,471.3-699.3,164.7-988.5c-115-109.2-224.2-157.1-388.9-166.7c-185.8-9.6-325.7,40.2-450.2,160.9c-245.2,237.6-256.7,603.5-30.6,858.3C7896.1-2145.9,8187.3-2088.4,8428.7-2199.5z"/><path d="M8030.2-2609.5c-44.1-46-55.6-72.8-55.6-139.8c1.9-191.6,203.1-275.9,337.2-141.8c134.1,134.1,49.8,335.2-141.8,337.2C8103-2553.9,8076.2-2565.4,8030.2-2609.5z"/></g></g>
</svg>